<mxfile compressed="false" host="Electron" modified="2021-09-10T14:47:40.967Z" agent="5.0 (Windows NT 10.0; Win64; x64) AppleWebKit/537.36 (KHTML, like Gecko) draw.io/15.1.3 Chrome/89.0.4389.128 Electron/12.1.0 Safari/537.36" version="15.1.3" etag="pXmBYRFlrvg6DMJc22od" type="device">
  <diagram id="Page-1" name="Page-1">
    <mxGraphModel dx="852" dy="494" grid="1" gridSize="10" guides="1" tooltips="1" connect="1" arrows="1" fold="1" page="1" pageScale="1" pageWidth="827" pageHeight="1169" math="0" shadow="1">
      <root>
        <mxCell id="0" />
        <mxCell id="1" parent="0" />
        <object label="R1" id="R1">
          <mxCell style="shape=mxgraph.cisco.routers.atm_router;html=1;pointerEvents=1;dashed=0;fillColor=#036897;strokeColor=#ffffff;strokeWidth=2;verticalLabelPosition=bottom;verticalAlign=top;align=center;outlineConnect=0;" parent="1" vertex="1">
            <mxGeometry x="600" y="460" width="120" height="60" as="geometry" />
          </mxCell>
        </object>
        <object label="R2" id="R2">
          <mxCell style="shape=mxgraph.cisco.routers.router;sketch=0;html=1;pointerEvents=1;dashed=0;fillColor=#036897;strokeColor=#ffffff;strokeWidth=2;verticalLabelPosition=bottom;verticalAlign=top;align=center;outlineConnect=0;" parent="1" vertex="1">
            <mxGeometry x="432" y="767" width="120" height="60" as="geometry" />
          </mxCell>
        </object>
        <object label="CSW" id="CSW">
          <mxCell style="shape=mxgraph.cisco.switches.layer_3_switch;sketch=0;html=1;pointerEvents=1;dashed=0;fillColor=#036897;strokeColor=#ffffff;strokeWidth=2;verticalLabelPosition=bottom;verticalAlign=top;align=center;outlineConnect=0;" parent="1" vertex="1">
            <mxGeometry x="240" y="50" width="120" height="110" as="geometry" />
          </mxCell>
        </object>
        <object label="ASW" id="ASW">
          <mxCell style="shape=mxgraph.cisco.switches.workgroup_switch;sketch=0;html=1;pointerEvents=1;dashed=0;fillColor=#036897;strokeColor=#ffffff;strokeWidth=2;verticalLabelPosition=bottom;verticalAlign=top;align=center;outlineConnect=0;" parent="1" vertex="1">
            <mxGeometry x="730" y="280" width="120" height="60" as="geometry" />
          </mxCell>
        </object>
        <object label="connect to core" id="335ab81fa522a3763782763996dbdbe9">
          <mxCell style="endArrow=none;html=1;dashed=1;edgeStyle=orthogonalEdgeStyle;" parent="1" source="R1" target="CSW" edge="1">
            <mxGeometry relative="1" as="geometry" />
          </mxCell>
        </object>
        <object label="connect to core" id="d3e29b9412f4e14f63a8a1378459caee">
          <mxCell style="endArrow=none;html=1;dashed=1;edgeStyle=orthogonalEdgeStyle;" parent="1" source="R2" target="CSW" edge="1">
            <mxGeometry relative="1" as="geometry" />
          </mxCell>
        </object>
        <object label="connect to asw" id="fc0f2841b29a06a9b136be5a1659becd">
          <mxCell style="endArrow=none;html=1;" parent="1" source="CSW" target="ASW" edge="1">
            <mxGeometry relative="1" as="geometry" />
          </mxCell>
        </object>
        <mxCell id="PAZNJHL5_6OKqns4-CNz-1" value="" style="sketch=0;points=[[0.015,0.015,0],[0.985,0.015,0],[0.985,0.985,0],[0.015,0.985,0],[0.25,0,0],[0.5,0,0],[0.75,0,0],[1,0.25,0],[1,0.5,0],[1,0.75,0],[0.75,1,0],[0.5,1,0],[0.25,1,0],[0,0.75,0],[0,0.5,0],[0,0.25,0]];verticalLabelPosition=bottom;html=1;verticalAlign=top;aspect=fixed;align=center;pointerEvents=1;shape=mxgraph.cisco19.rect;prIcon=dual_mode_access_point;fillColor=#FAFAFA;strokeColor=#005073;" vertex="1" parent="1">
          <mxGeometry x="120" y="580" width="64" height="50" as="geometry" />
        </mxCell>
      </root>
    </mxGraphModel>
  </diagram>
</mxfile>
